<svg fill="none" height="48" viewBox="0 0 213 48" width="213" xmlns="http://www.w3.org/2000/svg"><path clip-rule="evenodd" d="m4.29111 28.6025c.90712.9019.9071 2.3641-.00003 3.266l-.04646.0462c-.90713.9019-2.37788.9018-3.284994-.0001-.9071177-.9019-.9071038-2.3641.000031-3.266l.046453-.0462c.90714-.9019 2.37788-.9018 3.285.0001z" fill="#a4bcfd" fill-rule="evenodd"/><path clip-rule="evenodd" d="m15.2112 29.298c.9055.9035.9028 2.3658-.006 3.266l-6.43424 6.3741c-.90876.9002-2.3795.8976-3.28499-.0059-.90548-.9035-.90282-2.3658.00594-3.266l6.43429-6.3741c.9088-.9002 2.3795-.8976 3.285.0059z" fill="#6172f3" fill-rule="evenodd"/><path clip-rule="evenodd" d="m23.9431 40.2706c.7116-1.0613 2.1538-1.348 3.2212-.6405l.1394.0923c1.0674.7075 1.3558 2.1414.6442 3.2026-.7116 1.0613-2.1538 1.3481-3.2212.6406l-.1394-.0924c-1.0674-.7075-1.3558-2.1414-.6442-3.2026z" fill="#a4bcfd" fill-rule="evenodd"/><path clip-rule="evenodd" d="m39.2728 28.4638c.9072.9019.9072 2.3641 0 3.266l-3.159 3.1408c-.9072.9019-2.3779.9019-3.285 0s-.9071-2.3641 0-3.266l3.1591-3.1408c.9071-.9019 2.3778-.9019 3.2849 0z" fill="#6172f3" fill-rule="evenodd"/><path clip-rule="evenodd" d="m39.3197 16.8473c.9071.9019.9071 2.3642 0 3.266l-23.3446 23.2098c-.9071.9019-2.3779.9019-3.285 0s-.9071-2.3641 0-3.266l23.3446-23.2098c.9071-.9019 2.3778-.9019 3.285 0z" fill="#444ce7" fill-rule="evenodd"/><path clip-rule="evenodd" d="m34.905 9.71133c.9072.90187.9072 2.36417 0 3.26607l-13.426 13.3485c-.9071.9019-2.3779.9019-3.285 0s-.9071-2.3642 0-3.2661l13.4261-13.34847c.9071-.90189 2.3778-.90189 3.2849 0z" fill="#444ce7" fill-rule="evenodd"/><path clip-rule="evenodd" d="m27.8187 5.18362c.9077.90128.9087 2.36353.0022 3.26603l-17.2588 17.18215c-.90647.9025-2.37721.9035-3.28495.0022-.90773-.9013-.90872-2.3635-.00221-3.266l17.25876-17.18218c.9065-.9025 2.3772-.90348 3.285-.0022z" fill="#444ce7" fill-rule="evenodd"/><path clip-rule="evenodd" d="m10.7276 10.6841c.9056.9035.9031 2.3657-.0056 3.266l-6.75949 6.6974c-.90869.9003-2.37943.8978-3.28499-.0056-.905563-.9035-.903032-2.3657.005654-3.2661l6.759476-6.6973c.90868-.90034 2.37942-.89783 3.28495.0056z" fill="#6172f3" fill-rule="evenodd"/><path clip-rule="evenodd" d="m14.8678 4.00024c1.2828 0 2.3228 1.03397 2.3228 2.30944v.23094c0 1.27546-1.04 2.30943-2.3228 2.30943-1.2829 0-2.3229-1.03397-2.3229-2.30943v-.23094c0-1.27547 1.04-2.30944 2.3229-2.30944z" fill="#a4bcfd" fill-rule="evenodd"/><g fill="#0c111d"><path d="m66.254 23.7659c.675.918 1.026 2.052 1.026 3.348 0 1.134-.297 2.133-.864 3.024-.594.918-1.377 1.62-2.403 2.106-1.026.513-2.187.756-3.483.756h-10.53v-21.33h9.828c2.025 0 3.618.513 4.806 1.539 1.161 1.026 1.755 2.376 1.755 4.077 0 1.134-.27 2.133-.81 2.943s-1.296 1.404-2.241 1.728c1.242.27 2.214.891 2.916 1.809zm-12.042-3.321h4.239c1.242 0 2.16-.162 2.754-.54s.891-.945.891-1.728c0-.81-.324-1.431-.945-1.836-.621-.378-1.566-.594-2.835-.594h-4.104zm7.776 7.857c.621-.405.945-1.026.945-1.89 0-.783-.324-1.377-.918-1.755s-1.539-.567-2.808-.567h-4.995v4.833h4.887c1.296 0 2.241-.189 2.889-.621z"/><path d="m69.5033 16.5299c-.486-.486-.729-1.08-.729-1.836 0-.702.243-1.296.729-1.782.486-.459 1.08-.702 1.836-.702.729 0 1.323.243 1.809.702.486.486.729 1.08.729 1.782 0 .729-.243 1.323-.729 1.809s-1.08.729-1.809.729c-.756 0-1.35-.216-1.836-.702zm-.189 2.43h4.023v14.04h-4.023z"/><path d="m78.5833 32.4869c-1.134-.648-2.025-1.539-2.646-2.673-.648-1.134-.945-2.403-.945-3.861 0-1.431.297-2.7.945-3.834.621-1.134 1.512-1.998 2.646-2.646 1.134-.621 2.43-.945 3.888-.945s2.754.324 3.888.945c1.134.648 1.998 1.512 2.646 2.646s.972 2.403.972 3.834c0 1.458-.324 2.727-.972 3.861s-1.539 2.025-2.673 2.673-2.43.945-3.861.945c-1.458 0-2.754-.297-3.888-.945zm6.399-3.645c.648-.756.972-1.701.972-2.889 0-1.161-.324-2.106-.972-2.862-.648-.729-1.485-1.107-2.511-1.107s-1.836.378-2.484 1.107c-.648.756-.972 1.701-.972 2.862 0 1.188.324 2.133.972 2.889s1.458 1.134 2.484 1.134 1.863-.378 2.511-1.134z"/><path d="m92.9867 32.1359c-1.215-.864-1.836-2.079-1.863-3.618h3.969c0 .675.297 1.188.837 1.566s1.242.567 2.106.567c.729 0 1.323-.135 1.755-.459.4323-.324.6753-.702.6753-1.134 0-.513-.27-.864-.8103-1.08-.54-.189-1.35-.378-2.484-.54-1.188-.162-2.16-.351-2.916-.567s-1.431-.621-1.971-1.215-.81-1.431-.81-2.511c0-1.404.567-2.538 1.755-3.375 1.188-.81 2.808-1.242 4.86-1.242 1.863 0 3.3483.459 4.4823 1.35s1.755 2.106 1.89 3.645h-3.942c-.054-.675-.297-1.215-.7563-1.62-.486-.378-1.107-.594-1.917-.594-.756 0-1.323.162-1.728.459-.432.324-.621.729-.621 1.215s.243.837.756 1.026c.513.216 1.323.378 2.403.486 1.188.162 2.1873.378 2.9703.594.756.216 1.431.648 1.998 1.242.54.594.837 1.458.837 2.592 0 1.404-.594 2.484-1.755 3.294s-2.7543 1.215-4.7793 1.215c-2.106 0-3.753-.432-4.941-1.296z"/><path d="m105.535 34.8629h1.377c.864.027 1.566-.081 2.106-.324.513-.243.999-.675 1.458-1.323l-6.345-14.256h4.212l4.212 9.369 3.51-9.369h4.185l-5.724 15.066c-.702 1.647-1.62 2.781-2.781 3.429s-2.646.945-4.482.945h-1.728z"/><path d="m120.921 18.9599h3.996v2.025c.486-.756 1.107-1.377 1.917-1.809s1.755-.648 2.835-.648c3.456 0 5.211 2.187 5.211 6.534v7.938h-4.05v-7.722c0-1.026-.243-1.809-.729-2.403s-1.161-.891-2.025-.891c-.972 0-1.755.351-2.322 1.053s-.837 1.62-.837 2.781v7.182h-3.996z"/><path d="m142.84 33.1079c-1.08 0-1.917-.108-2.511-.324-.621-.216-1.08-.594-1.35-1.161-.297-.567-.432-1.377-.405-2.403v-6.615h-2.997l.253-3.645h2.744v-3.78h3.996v3.78h3.672l-.252 3.645h-3.42v4.563c0 .702.027 1.188.081 1.485.054.324.216.54.432.675s.567.189 1.08.189c.378 0 1.456-.027 2.077-.081l-.25 3.537c-1.215.108-2.475.135-3.15.135z"/><path d="m147.752 11.6699h3.996v9.288c.486-.756 1.107-1.35 1.917-1.782s1.755-.648 2.835-.648c3.456 0 5.211 2.187 5.211 6.507v7.965h-4.05v-7.776c0-1.026-.243-1.809-.729-2.376s-1.161-.864-2.025-.864c-.972 0-1.755.351-2.322 1.026-.567.702-.837 1.62-.837 2.754v7.236h-3.996z"/><path d="m166.749 32.4869c-1.134-.648-1.998-1.539-2.619-2.673s-.918-2.403-.918-3.861c0-1.431.297-2.7.918-3.834s1.485-1.998 2.619-2.646c1.107-.621 2.376-.945 3.807-.945 1.242 0 2.349.324 3.348.918s1.782 1.458 2.376 2.565c.567 1.134.864 2.403.864 3.861v1.296h-9.855c.081.945.405 1.674.945 2.214s1.323.783 2.349.783c.675 0 1.242-.162 1.674-.486s.702-.729.81-1.242h3.996c-.216 1.512-.945 2.727-2.133 3.645s-2.646 1.35-4.374 1.35c-1.431 0-2.7-.297-3.807-.945zm6.372-7.776c-.054-.81-.297-1.458-.783-1.971-.486-.486-1.134-.756-1.944-.756-.918 0-1.62.243-2.133.729s-.837 1.161-.945 1.998z"/><path d="m180.151 32.1359c-1.215-.864-1.836-2.079-1.863-3.618h3.969c0 .675.297 1.188.837 1.566s1.242.567 2.106.567c.729 0 1.323-.135 1.755-.459s.675-.702.675-1.134c0-.513-.27-.864-.81-1.08-.54-.189-1.35-.378-2.484-.54-1.188-.162-2.16-.351-2.916-.567s-1.431-.621-1.971-1.215-.81-1.431-.81-2.511c0-1.404.567-2.538 1.755-3.375 1.188-.81 2.808-1.242 4.86-1.242 1.863 0 3.348.459 4.482 1.35s1.755 2.106 1.89 3.645h-3.942c-.054-.675-.297-1.215-.756-1.62-.486-.378-1.107-.594-1.917-.594-.756 0-1.323.162-1.728.459-.432.324-.621.729-.621 1.215s.243.837.756 1.026c.513.216 1.323.378 2.403.486 1.188.162 2.187.378 2.97.594.756.216 1.431.648 1.998 1.242.54.594.837 1.458.837 2.592 0 1.404-.594 2.484-1.755 3.294s-2.754 1.215-4.779 1.215c-2.106 0-3.753-.432-4.941-1.296z"/><path d="m193.461 16.5299c-.486-.486-.729-1.08-.729-1.836 0-.702.243-1.296.729-1.782.486-.459 1.08-.702 1.836-.702.729 0 1.323.243 1.809.702.486.486.729 1.08.729 1.782 0 .729-.243 1.323-.729 1.809s-1.08.729-1.809.729c-.756 0-1.35-.216-1.836-.702zm-.189 2.43h4.023v14.04h-4.023z"/><path d="m210.425 32.1359c1.215-.864 1.836-2.079 1.863-3.618h-3.969c0 .675-.297 1.188-.837 1.566s-1.242.567-2.106.567c-.729 0-1.323-.135-1.755-.459s-.675-.702-.675-1.134c0-.513.27-.864.81-1.08.54-.189 1.35-.378 2.484-.54 1.188-.162 2.16-.351 2.916-.567s1.431-.621 1.971-1.215.81-1.431.81-2.511c0-1.404-.567-2.538-1.755-3.375-1.188-.81-2.808-1.242-4.86-1.242-1.863 0-3.348.459-4.482 1.35s-1.755 2.106-1.89 3.645h3.942c.054-.675.297-1.215.756-1.62.486-.378 1.107-.594 1.917-.594.756 0 1.323.162 1.728.459.432.324.621.729.621 1.215s-.243.837-.756 1.026c-.513.216-1.323.378-2.403.486-1.188.162-2.187.378-2.97.594-.756.216-1.431.648-1.998 1.242-.54.594-.837 1.458-.837 2.592 0 1.404.594 2.484 1.755 3.294s2.754 1.215 4.779 1.215c2.106 0 3.753-.432 4.941-1.296z"/></g></svg>